####
#
# OBJ File Generated by Meshlab
#
####
# Object battery.001.obj
#
# Vertices: 162
# Faces: 324
#
####
vn 0.3039888 -0.7577777 0.5773766
v 0.1429810 -0.0269970 0.0335600
vn -0.5870085 0.4748289 0.6557122
v 0.1126520 0.0182430 0.0340730
vn -0.7968814 -0.0454159 0.6024263
v 0.1053000 -0.0020330 0.0336170
vn -0.4903129 -0.6179665 0.6145817
v 0.1162030 -0.0221360 0.0339530
vn -0.3403147 -0.7138790 0.6120151
v 0.1207520 -0.0250510 0.0474320
vn -0.4167979 0.6519821 0.6334026
v 0.1184260 0.0232150 0.0479630
vn 0.2900481 0.7273962 0.6219059
v 0.1432490 0.0254300 0.0475820
vn -0.7904672 -0.0822671 0.6069546
v 0.1044840 -0.0032710 0.0477600
vn -0.3096426 -0.1129619 -0.9441192
v 0.1172590 -0.0069370 0.0132720
vn -0.3272289 -0.0035512 0.9449384
v 0.1164820 -0.0018470 0.0332720
vn 0.0759688 0.2279638 -0.9707015
v 0.1380250 0.0174720 0.0132640
vn 0.0944962 0.1879966 0.9776133
v 0.1389770 0.0167060 0.0332630
vn -0.2785067 0.7071812 0.6498684
v -0.0871470 0.0260390 0.0341930
vn -0.1352958 -0.7874328 0.6013689
v -0.0824930 -0.0279860 0.0338570
vn -0.7101062 0.3003498 0.6368196
v -0.1028040 0.0093760 0.0337210
vn -0.7275202 -0.2646566 0.6329859
v -0.1026630 -0.0099170 0.0341070
vn 0.0536264 -0.7605224 0.6470935
v -0.0768580 -0.0271050 0.0477390
vn -0.6026199 -0.5198985 0.6054377
v -0.0983560 -0.0183570 0.0480140
vn -0.3609835 0.6831882 0.6347794
v -0.0891910 0.0246200 0.0478300
vn -0.7546865 0.2339608 0.6129525
v -0.1037190 0.0079730 0.0476420
vn 0.0248819 -0.3421637 -0.9393109
v -0.0739530 -0.0168770 0.0133620
vn -0.2846606 -0.1178360 0.9513586
v -0.0936560 -0.0046180 0.0333720
vn -0.2766443 0.1377485 -0.9510486
v -0.0933830 0.0082220 0.0133730
vn 0.0128875 0.3356649 0.9418933
v -0.0775440 0.0166820 0.0333660
vn -0.3154571 -0.7423563 -0.5910956
v -0.2144860 -0.1127610 -0.0035800
vn 0.3270023 -0.0671172 -0.9426371
v -0.2001550 -0.1071370 0.0134140
vn 0.8142573 0.0656164 -0.5767838
v -0.1990220 -0.1036430 -0.0035860
vn -0.0725103 0.3141704 -0.9465935
v -0.2129870 -0.0936470 0.0134210
vn -0.5735686 0.5763618 -0.5820878
v -0.2178750 -0.0968280 -0.0035770
vn 0.1222336 -0.9134349 0.3881955
v 0.4664980 -0.1165800 -0.0039030
vn 0.1507866 0.1768698 -0.9726152
v 0.4739630 -0.0985230 0.0130950
vn 0.5837409 0.6168944 0.5279089
v 0.4718780 -0.0973860 -0.0039040
vn 0.1730241 -0.2046843 -0.9634143
v 0.1333610 -0.1553680 0.0132520
vn 0.9409133 0.2096821 0.2659240
v 0.1385560 -0.1440350 -0.0037500
vn 0.1632193 0.3445596 -0.9244664
v 0.1321500 -0.1370130 0.0132540
vn 0.1522251 -0.1421486 -0.9780702
v 0.1373600 0.1388610 0.0132740
vn 0.7021537 -0.1365488 -0.6988094
v 0.1394050 0.1436080 -0.0037260
vn -0.0110255 0.2145128 -0.9766589
v 0.1263270 0.1555340 0.0132810
vn -0.6828991 0.0404200 -0.7293937
v 0.1170110 0.1471280 -0.0037150
vn -0.0304005 -0.3912469 -0.9197835
v 0.4668300 0.0930490 0.0131140
vn 0.4520099 -0.6497106 -0.6111982
v 0.4729470 0.0950110 -0.0038890
vn 0.1350179 0.0980054 -0.9859843
v 0.4786140 0.1092890 0.0126980
vn 0.2318184 0.7556581 -0.6125693
v 0.4697960 0.1124540 -0.0038860
vn 0.1616755 -0.3031317 -0.9391338
v -0.2060960 0.0953820 0.0134340
vn 0.1066752 -0.8986186 0.4255645
v -0.2086600 0.0935450 -0.0035650
vn 0.2156159 0.1440935 -0.9657882
v -0.2022730 0.1126920 0.0134330
vn 0.7597609 0.3595112 0.5417703
v -0.2015000 0.1100030 -0.0035670
vn -0.7053024 0.5890490 0.3944232
v -0.2174580 0.1117600 -0.0035600
vn -0.8122552 0.1053753 -0.5737051
v -0.1941350 0.0664100 -0.0478740
vn -0.4438345 0.1039614 -0.8900578
v -0.1893560 0.0777830 -0.0477620
vn 0.1949625 0.5457187 -0.8149728
v -0.1676570 0.0826130 -0.0555910
vn -0.4039490 0.6103489 -0.6813952
v -0.1801700 0.0838800 -0.0516170
vn 0.3369263 0.2034430 -0.9192887
v -0.1583330 0.0703860 -0.0584870
vn -0.7900420 -0.0183356 -0.6127784
v -0.1944000 -0.0666650 -0.0478840
vn 0.1140424 0.4490370 -0.8862055
v -0.1679160 -0.0504210 -0.0556930
vn -0.4793952 0.4959223 -0.7240452
v -0.1864640 -0.0510470 -0.0498730
vn 0.2958266 0.0638143 -0.9531078
v -0.1578130 -0.0665730 -0.0585140
vn -0.1391865 -0.7117445 -0.6885107
v -0.1784220 -0.0838620 -0.0521640
vn 0.2482160 -0.2229338 -0.9427032
v -0.1581670 -0.0732400 -0.0488040
vn 0.1476097 -0.6226999 -0.7684116
v -0.1666360 -0.0809260 -0.0558860
vn -0.1314157 0.5099628 -0.8500988
v -0.1722610 -0.0482080 -0.0448660
vn -0.1377365 -0.6565951 -0.7415602
v -0.1781820 0.0491950 -0.0521990
vn 0.2592832 -0.2018352 -0.9444759
v -0.1579000 0.0598330 -0.0487930
vn 0.1308286 -0.4693955 -0.8732421
v -0.1630080 0.0543610 -0.0569420
vn -0.0146712 0.5698586 -0.8216118
v -0.1719950 0.0848650 -0.0448540
vn 0.0198779 -0.4574476 -0.8890144
v -0.2012510 -0.1214960 -0.0095330
vn 0.7862794 -0.1212786 -0.6058517
v -0.1899690 -0.1046720 -0.0135910
vn 0.4248244 0.2790724 -0.8611869
v -0.1896300 -0.0986250 0.0014100
vn 0.3006548 0.7884752 -0.5365759
v -0.2041640 -0.0843610 -0.0135820
vn 0.2870888 -0.2270322 -0.9306108
v 0.1476420 -0.1452460 0.0010860
vn 0.2834878 -0.8206806 -0.4961030
v 0.1464370 -0.1389720 -0.0140930
vn 0.0288156 0.4139318 -0.9098517
v 0.1276600 -0.1246850 0.0012570
vn -0.6237244 -0.7764580 0.0898940
v 0.1156550 -0.1291930 -0.0142930
vn -0.6042588 0.2460504 -0.7578460
v 0.4644710 -0.0842100 0.0011000
vn -0.9904338 0.1342228 -0.0320208
v 0.4699540 -0.0838870 -0.0139020
vn 0.3152546 0.3578370 -0.8789580
v 0.4730650 -0.1242210 0.0119510
vn -0.6330783 -0.5290453 -0.5650867
v 0.4826230 0.1182630 0.0117640
vn 0.0160735 -0.4421144 -0.8968146
v -0.0195570 -0.1599700 0.0125200
vn -0.0243957 -0.4455342 -0.8949324
v 0.2708930 -0.1610400 0.0122670
vn 0.0181474 0.4421650 -0.8967502
v -0.0189160 0.1598690 0.0125470
vn 0.3421576 0.4624843 -0.8179465
v -0.2237830 -0.1195160 0.0121950
vn -0.0233979 0.4464938 -0.8944808
v 0.2725160 0.1596910 0.0123320
vn -0.2830602 -0.3031308 -0.9099388
v 0.4833930 -0.1104840 0.0119870
vn 0.6133052 -0.5297490 -0.5858523
v -0.2238660 0.1198700 0.0122150
vn -0.6837439 -0.2740732 -0.6762975
v 0.4830320 0.1192710 -0.0810310
vn -0.1592112 0.3338977 -0.9290663
v -0.1734870 -0.1301700 -0.0505270
vn -0.0864292 -0.4929159 -0.8657736
v -0.0568100 -0.1118420 -0.0858650
vn -0.6420182 0.2241906 -0.7331789
v 0.4818580 -0.1212040 -0.0815700
vn -0.6892650 0.1687202 -0.7045902
v -0.2220410 0.1001770 -0.0404110
vn -0.1370949 -0.3412225 -0.9299313
v -0.1727310 0.1307900 -0.0504440
vn -0.6394463 -0.3311368 -0.6938710
v -0.1900110 0.0553720 -0.0492960
vn -0.0834556 0.4927568 -0.8661559
v -0.0555370 0.1117500 -0.0860450
vn 0.0484458 -0.2780204 -0.9593527
v -0.2289890 -0.0972150 -0.0371110
vn -0.6287159 -0.3539208 -0.6924279
v -0.1901880 -0.0776840 -0.0492180
vn 0.3084950 -0.6925586 -0.6520686
v -0.2257180 0.1220120 -0.0212510
vn -0.7529448 0.1990344 -0.6272634
v -0.2152730 -0.1260040 -0.0265410
vn -0.9432750 0.0055890 -0.3319655
v -0.2243510 0.0952520 -0.0124910
vn -0.2236303 0.0131828 -0.9745849
v -0.2241430 -0.0937340 -0.0188910
vn 0.4864159 0.4780731 -0.7313315
v -0.2153580 -0.0843930 0.0014230
vn -0.3322183 -0.4739509 -0.8154763
v -0.2200490 -0.1113300 -0.0136410
vn 0.0363101 -0.4280072 -0.9030457
v -0.0516900 -0.1484150 0.0013390
vn -0.7045848 0.7079899 -0.0480690
v -0.2055600 0.1221260 -0.0136790
vn -0.4806530 -0.8598946 -0.1719128
v 0.4487970 0.1156500 -0.0138750
vn -0.5665583 -0.6201409 -0.5426206
v 0.4749690 0.1128710 -0.0138880
vn -0.6834674 -0.2631626 -0.6808949
v 0.4767830 0.0864420 -0.0038910
vn -0.3300177 -0.7283420 -0.6005050
v 0.4545350 0.0862370 -0.0138810
vn -0.0273808 0.4526091 -0.8912886
v 0.3091380 0.1476750 0.0011930
vn -0.7347715 -0.4911907 -0.4678062
v 0.4527490 0.1180210 0.0011230
vn -0.6056111 0.5479139 0.5770837
v 0.4743010 -0.1149660 -0.0139070
vn -0.6511009 0.2430215 -0.7190329
v 0.4742350 -0.1140750 -0.0735590
vn -0.0319005 -0.4360177 -0.8993725
v 0.3084370 -0.1491080 0.0011680
vn -0.6834195 -0.2662495 -0.6797419
v 0.4751010 0.1121540 -0.0731760
vn 0.5801547 -0.4524766 -0.6772632
v -0.1950960 0.1188060 0.0014300
vn 0.0362977 0.4391024 -0.8977035
v -0.0510960 0.1484450 0.0013630
vn -0.0746578 -0.4864690 -0.8705022
v -0.0540090 -0.1068790 -0.0767450
vn -0.1371511 -0.2263646 -0.9643385
v 0.1075950 -0.1451660 0.0011050
vn 0.0256017 0.9761755 -0.2154665
v 0.1470870 0.1386560 -0.0139940
vn -0.3133235 0.8256974 0.4690973
v 0.1168460 0.1279130 -0.0142630
vn -0.0048120 0.2097865 -0.9777354
v 0.1105150 0.1351910 0.0010250
vn -0.5167375 -0.3301851 -0.7899116
v -0.1879720 0.0517990 -0.0404290
vn -0.1649867 -0.2700244 -0.9486128
v -0.1656800 0.1239400 -0.0437500
vn -0.6498996 0.3885228 -0.6532079
v -0.2126470 0.1063720 -0.0327240
vn -0.0750337 0.4892762 -0.8688951
v -0.0525250 0.1068380 -0.0768900
vn -0.6588400 0.2209488 -0.7191046
v -0.1915860 -0.0575780 -0.0394960
vn -0.5056596 -0.3422609 -0.7919380
v -0.1882380 -0.0812740 -0.0404390
vn -0.5022016 -0.4899248 -0.7125779
v -0.2061160 -0.1115360 -0.0351250
vn -0.1404644 -0.0523190 -0.9887025
v -0.1566320 -0.1272530 -0.0405110
vn -0.3590748 0.9320141 0.0491434
v 0.4457260 -0.1141550 -0.0138930
vn -0.4349649 0.5909445 -0.6794043
v 0.4455190 -0.1121310 0.0011070
vn 0.0720449 -0.1848594 -0.9801207
v 0.1429710 0.1303180 0.0009830
vn -0.4066206 -0.2041058 -0.8905057
v 0.4480530 0.0916880 0.0011230
vn 0.3773673 -0.2806913 -0.8825001
v -0.1984060 0.0851760 0.0014290
vn 0.1183619 -0.8215085 0.5577762
v -0.2038070 0.0850100 -0.0135680
vn 0.7937257 0.0272975 0.6076631
v -0.1895500 0.1052710 -0.0135730
vn 0.9968500 0.0023733 -0.0792749
v -0.2315410 -0.0173650 0.0134360
vn -0.2098697 -0.0339102 -0.9771411
v -0.2202940 0.1043210 0.0134410
vn 0.2280798 -0.2155003 -0.9494942
v 0.1430470 -0.0138290 0.0132590
vn -0.3172247 0.0950402 -0.9435761
v 0.4561100 0.1074390 0.0131200
vn -0.3665127 0.0284138 -0.9299791
v 0.1172890 -0.1447620 0.0132600
vn -0.2993302 0.0903984 -0.9498577
v 0.4551040 -0.1033540 0.0131030
vn -0.2069305 -0.1624017 -0.9647826
v -0.2170530 -0.1115890 0.0134210
vn 0.3002304 0.1921747 -0.9343076
v -0.0623640 0.0085340 0.0133580
vn 0.2255325 -0.1581081 -0.9613204
v 0.4673110 -0.1151940 0.0130970
vn -0.2578879 -0.1867441 -0.9479560
v 0.1190230 0.1418320 0.0132830
vn -0.8078884 -0.0331554 -0.5884021
v 0.4552580 0.1036210 -0.0038790
vn -0.7175800 0.6138260 0.3290846
v 0.1191280 -0.1400210 -0.0037400
vn -0.3194005 -0.8537174 0.4112786
v 0.1240180 -0.1552870 -0.0037440
vn -0.7329419 0.4311744 0.5261985
v 0.4571210 -0.1001170 -0.0038970
vn 0.2205100 -0.1469261 0.9642552
v -0.0613280 -0.0097310 0.0333560
vn 0.7697482 0.0458826 0.6366965
v -0.0494230 0.0020600 0.0478870
vn 0.6028566 -0.5184783 0.6064192
v -0.0562910 -0.0178580 0.0338320
vn 0.7546285 0.1726690 0.6330255
v -0.0494500 0.0055520 0.0340470
vn 0.3644099 0.7017643 0.6121538
v -0.0645650 0.0252290 0.0478970
vn 0.5210783 -0.6019075 0.6051320
v -0.0584690 -0.0205960 0.0475930
vn 0.3599108 0.7041783 0.6120434
v -0.0649900 0.0246350 0.0338960
vn 0.1454605 -0.2163547 0.9654180
v 0.1408550 -0.0163650 0.0332600
vn 0.7234137 0.2861137 0.6283404
v 0.1585550 0.0094250 0.0476250
vn 0.7040044 -0.3435507 0.6215712
v 0.1581830 -0.0107310 0.0479910
vn 0.2747193 -0.7156808 0.6421295
v 0.1428780 -0.0262900 0.0476120
vn 0.5735589 0.5289426 0.6254997
v 0.1530630 0.0183850 0.0340690
vn -0.0106017 0.7698764 0.6381050
v 0.1328650 0.0273910 0.0338640
vn 0.8056476 -0.0960127 0.5845627
v 0.1606030 -0.0021460 0.0336280
# 162 vertices, 0 vertices normals

f 1//1 159//159 5//5
f 4//4 1//1 5//5
f 4//4 5//5 8//8
f 3//3 4//4 8//8
f 2//2 3//3 8//8
f 2//2 8//8 6//6
f 161//161 2//2 6//6
f 161//161 6//6 7//7
f 9//9 137//137 156//156
f 9//9 156//156 10//10
f 11//11 10//10 12//12
f 11//11 9//9 10//10
f 14//14 17//17 18//18
f 16//16 14//14 18//18
f 16//16 18//18 20//20
f 15//15 16//16 20//20
f 13//13 20//20 19//19
f 13//13 15//15 20//20
f 13//13 19//19 153//153
f 21//21 149//149 22//22
f 23//23 21//21 22//22
f 23//23 22//22 24//24
f 26//26 25//25 27//27
f 26//26 141//141 25//25
f 28//28 26//26 27//27
f 28//28 27//27 29//29
f 31//31 143//143 30//30
f 31//31 30//30 32//32
f 33//33 147//147 34//34
f 35//35 33//33 34//34
f 35//35 34//34 146//146
f 38//38 36//36 37//37
f 38//38 37//37 39//39
f 42//42 40//40 41//41
f 42//42 41//41 43//43
f 46//46 44//44 45//45
f 46//46 45//45 47//47
f 46//46 47//47 48//48
f 61//61 55//55 56//56
f 59//59 58//58 60//60
f 59//59 125//125 58//58
f 59//59 60//60 57//57
f 61//61 59//59 57//57
f 61//61 57//57 55//55
f 65//65 51//51 52//52
f 63//63 62//62 64//64
f 63//63 120//120 62//62
f 63//63 64//64 53//53
f 65//65 63//63 53//53
f 65//65 53//53 51//51
f 68//68 66//66 67//67
f 68//68 67//67 69//69
f 99//99 68//68 69//69
f 72//72 70//70 71//71
f 72//72 71//71 73//73
f 83//83 42//42 77//77
f 82//82 85//85 77//77
f 85//85 83//83 77//77
f 85//85 88//88 83//83
f 88//88 79//79 76//76
f 86//86 96//96 81//81
f 78//78 86//86 81//81
f 93//93 84//84 81//81
f 93//93 95//95 84//84
f 84//84 90//90 80//80
f 95//95 90//90 84//84
f 92//92 85//85 88//88
f 87//87 92//92 88//88
f 78//78 86//86 87//87
f 79//79 78//78 87//87
f 88//88 79//79 87//87
f 92//92 82//82 85//85
f 80//80 82//82 92//92
f 90//90 80//80 92//92
f 89//89 52//52 50//50
f 51//51 90//90 53//53
f 55//55 64//64 57//57
f 53//53 90//90 92//92
f 57//57 64//64 87//87
f 49//49 89//89 50//50
f 64//64 53//53 92//92
f 93//93 54//54 94//94
f 93//93 94//94 58//58
f 52//52 90//90 51//51
f 93//93 58//58 86//86
f 55//55 62//62 64//64
f 93//93 89//89 49//49
f 93//93 49//49 91//91
f 93//93 91//91 54//54
f 54//54 91//91 56//56
f 56//56 62//62 55//55
f 56//56 91//91 62//62
f 87//87 64//64 92//92
f 86//86 58//58 60//60
f 86//86 57//57 87//87
f 86//86 60//60 57//57
f 89//89 90//90 52//52
f 90//90 89//89 95//95
f 95//95 89//89 93//93
f 81//81 93//93 96//96
f 83//83 76//76 88//88
f 96//96 93//93 86//86
f 98//98 97//97 99//99
f 101//101 127//127 66//66
f 106//106 104//104 105//105
f 106//106 103//103 104//104
f 112//112 104//104 103//103
f 107//107 103//103 108//108
f 107//107 112//112 103//103
f 128//128 111//111 129//129
f 110//110 128//128 109//109
f 110//110 111//111 128//128
f 110//110 109//109 75//75
f 105//105 75//75 74//74
f 112//112 105//105 104//104
f 112//112 110//110 75//75
f 112//112 75//75 105//105
f 113//113 121//121 114//114
f 102//102 121//121 113//113
f 123//123 112//112 110//110
f 115//115 123//123 110//110
f 101//101 127//127 115//115
f 73//73 101//101 115//115
f 116//116 101//101 73//73
f 71//71 73//73 115//115
f 111//111 70//70 71//71
f 110//110 111//111 71//71
f 110//110 71//71 115//115
f 117//117 107//107 112//112
f 130//130 107//107 117//117
f 123//123 118//118 117//117
f 123//123 117//117 112//112
f 114//114 119//119 118//118
f 114//114 118//118 123//123
f 121//121 114//114 123//123
f 61//61 63//63 115//115
f 126//126 59//59 115//115
f 126//126 125//125 59//59
f 63//63 65//65 121//121
f 59//59 61//61 115//115
f 63//63 121//121 123//123
f 124//124 120//120 61//61
f 126//126 124//124 125//125
f 120//120 122//122 50//50
f 126//126 122//122 120//120
f 126//126 120//120 124//124
f 61//61 120//120 63//63
f 115//115 63//63 123//123
f 122//122 121//121 65//65
f 122//122 65//65 50//50
f 121//121 122//122 102//102
f 122//122 97//97 102//102
f 122//122 126//126 98//98
f 97//97 122//122 98//98
f 126//126 66//66 100//100
f 98//98 126//126 100//100
f 66//66 126//126 127//127
f 115//115 127//127 126//126
f 74//74 75//75 128//128
f 129//129 74//74 128//128
f 75//75 128//128 109//109
f 116//116 72//72 73//73
f 130//130 119//119 118//118
f 130//130 118//118 117//117
f 131//131 108//108 103//103
f 131//131 103//103 106//106
f 105//105 131//131 106//106
f 132//132 97//97 133//133
f 132//132 133//133 134//134
f 113//113 132//132 134//134
f 113//113 134//134 102//102
f 97//97 133//133 134//134
f 102//102 97//97 134//134
f 99//99 69//69 98//98
f 100//100 98//98 69//69
f 100//100 69//69 67//67
f 100//100 67//67 66//66
f 120//120 49//49 91//91
f 65//65 52//52 50//50
f 120//120 91//91 62//62
f 120//120 50//50 49//49
f 125//125 54//54 94//94
f 124//124 61//61 56//56
f 125//125 94//94 58//58
f 124//124 56//56 54//54
f 125//125 124//124 54//54
f 99//99 97//97 132//132
f 66//66 68//68 101//101
f 107//107 108//108 131//131
f 74//74 131//131 105//105
f 111//111 74//74 129//129
f 111//111 107//107 131//131
f 111//111 131//131 74//74
f 111//111 130//130 107//107
f 70//70 72//72 111//111
f 72//72 130//130 111//111
f 72//72 119//119 130//130
f 132//132 113//113 114//114
f 101//101 114//114 119//119
f 101//101 72//72 116//116
f 101//101 119//119 72//72
f 101//101 132//132 114//114
f 68//68 132//132 101//101
f 99//99 132//132 68//68
f 81//81 84//84 135//135
f 137//137 82//82 79//79
f 137//137 11//11 82//82
f 11//11 144//144 36//36
f 11//11 80//80 144//144
f 9//9 80//80 11//11
f 138//138 77//77 42//42
f 78//78 21//21 9//9
f 78//78 139//139 33//33
f 78//78 9//9 139//139
f 135//135 136//136 44//44
f 135//135 84//84 136//136
f 26//26 28//28 23//23
f 26//26 23//23 21//21
f 35//35 137//137 79//79
f 82//82 77//77 138//138
f 26//26 21//21 78//78
f 28//28 44//44 23//23
f 33//33 35//35 79//79
f 35//35 9//9 137//137
f 31//31 42//42 83//83
f 31//31 40//40 42//42
f 139//139 9//9 35//35
f 140//140 40//40 31//31
f 135//135 44//44 28//28
f 135//135 28//28 141//141
f 143//143 31//31 83//83
f 81//81 26//26 78//78
f 81//81 135//135 141//141
f 81//81 141//141 26//26
f 140//140 138//138 40//40
f 140//140 82//82 138//138
f 80//80 82//82 38//38
f 79//79 78//78 33//33
f 142//142 80//80 9//9
f 76//76 143//143 83//83
f 23//23 80//80 142//142
f 76//76 140//140 143//143
f 21//21 142//142 9//9
f 36//36 38//38 82//82
f 46//46 84//84 80//80
f 80//80 38//38 144//144
f 79//79 82//82 140//140
f 79//79 140//140 76//76
f 11//11 36//36 82//82
f 46//46 80//80 23//23
f 44//44 46//46 23//23
f 136//136 84//84 46//46
f 48//48 45//45 47//47
f 136//136 46//46 48//48
f 136//136 48//48 45//45
f 44//44 136//136 45//45
f 145//145 43//43 41//41
f 138//138 42//42 43//43
f 138//138 43//43 145//145
f 40//40 138//138 145//145
f 40//40 145//145 41//41
f 144//144 38//38 39//39
f 36//36 144//144 39//39
f 36//36 39//39 37//37
f 146//146 147//147 34//34
f 139//139 35//35 146//146
f 139//139 146//146 147//147
f 33//33 139//139 147//147
f 148//148 30//30 32//32
f 31//31 32//32 148//148
f 140//140 31//31 148//148
f 140//140 148//148 30//30
f 143//143 140//140 30//30
f 25//25 29//29 27//27
f 141//141 28//28 29//29
f 141//141 29//29 25//25
f 142//142 23//23 24//24
f 142//142 24//24 149//149
f 21//21 142//142 149//149
f 155//155 13//13 153//153
f 152//152 155//155 153//153
f 152//152 153//153 150//150
f 151//151 150//150 154//154
f 151//151 152//152 150//150
f 14//14 154//154 17//17
f 14//14 151//151 154//154
f 153//153 17//17 154//154
f 153//153 154//154 150//150
f 19//19 18//18 17//17
f 19//19 17//17 153//153
f 19//19 20//20 18//18
f 155//155 149//149 152//152
f 155//155 24//24 149//149
f 16//16 14//14 22//22
f 149//149 14//14 151//151
f 149//149 151//151 152//152
f 15//15 16//16 22//22
f 13//13 24//24 155//155
f 22//22 14//14 149//149
f 15//15 24//24 13//13
f 15//15 22//22 24//24
f 11//11 12//12 156//156
f 137//137 11//11 156//156
f 160//160 161//161 7//7
f 160//160 7//7 157//157
f 162//162 160//160 157//157
f 162//162 157//157 158//158
f 1//1 158//158 159//159
f 1//1 162//162 158//158
f 7//7 158//158 157//157
f 7//7 159//159 158//158
f 6//6 5//5 159//159
f 6//6 159//159 7//7
f 6//6 8//8 5//5
f 3//3 10//10 12//12
f 10//10 4//4 156//156
f 2//2 3//3 12//12
f 160//160 12//12 162//162
f 161//161 12//12 160//160
f 3//3 4//4 10//10
f 156//156 1//1 162//162
f 12//12 156//156 162//162
f 2//2 12//12 161//161
f 4//4 1//1 156//156
# 324 faces, 0 coords texture

# End of File
